<svg width="20" height="20" viewBox="0 0 20 20" fill="none" xmlns="http://www.w3.org/2000/svg">
<rect width="20" height="20" fill="#F1F5F9"/>
<path d="M15.0306 13.9694C15.1715 14.1103 15.2506 14.3014 15.2506 14.5006C15.2506 14.6999 15.1715 14.891 15.0306 15.0319C14.8897 15.1728 14.6986 15.2519 14.4993 15.2519C14.3001 15.2519 14.109 15.1728 13.9681 15.0319L9.99997 11.0625L6.0306 15.0306C5.8897 15.1715 5.69861 15.2507 5.49935 15.2507C5.30009 15.2507 5.10899 15.1715 4.9681 15.0306C4.8272 14.8897 4.74805 14.6986 4.74805 14.4994C4.74805 14.3001 4.8272 14.109 4.9681 13.9681L8.93747 9.99999L4.96935 6.03061C4.82845 5.88972 4.7493 5.69862 4.7493 5.49936C4.7493 5.30011 4.82845 5.10901 4.96935 4.96811C5.11024 4.82722 5.30134 4.74806 5.5006 4.74806C5.69986 4.74806 5.89095 4.82722 6.03185 4.96811L9.99997 8.93749L13.9693 4.96749C14.1102 4.82659 14.3013 4.74744 14.5006 4.74744C14.6999 4.74744 14.891 4.82659 15.0318 4.96749C15.1727 5.10838 15.2519 5.29948 15.2519 5.49874C15.2519 5.69799 15.1727 5.88909 15.0318 6.02999L11.0625 9.99999L15.0306 13.9694Z" fill="#60A5FA"/>
</svg>
